<?xml version="1.0" encoding="UTF-8"?>
<svg width="16px" height="16px" viewBox="0 0 16 16" version="1.1" xmlns="http://www.w3.org/2000/svg" xmlns:xlink="http://www.w3.org/1999/xlink">
    <title>大括号</title>
    <g id="页面-1" stroke="none" stroke-width="1" fill="none" fill-rule="evenodd">
        <g id="大括号">
            <rect id="矩形" fill="#000000" fill-rule="nonzero" opacity="0" x="0" y="0" width="16" height="16"></rect>
            <path d="M4,4 C4,3.26362034 4.59695366,2.66666667 5.33333333,2.66666667 C5.70152316,2.66666667 6,2.36818984 6,2 C6,1.63181016 5.70152316,1.33333333 5.33333333,1.33333333 C3.860574,1.33333333 2.66666666,2.52724067 2.66666666,4 L2.66666666,6 C2.66666666,6.35362199 2.52619088,6.69276054 2.27614238,6.94280904 C2.02609387,7.19285755 1.68695532,7.33333333 1.33333333,7.33333333 C0.965143492,7.33333333 0.666666656,7.63181016 0.666666656,8 C0.666666656,8.36818984 0.965143492,8.66666667 1.33333333,8.66666667 C1.68695532,8.66666667 2.02609387,8.80714245 2.27614238,9.05719096 C2.52619088,9.30723946 2.66666666,9.64637801 2.66666666,10 L2.66666666,12 C2.66666666,13.4727593 3.860574,14.6666667 5.33333333,14.6666667 C5.70152316,14.6666667 6,14.3681898 6,14 C6,13.6318102 5.70152316,13.3333333 5.33333333,13.3333333 C4.59695366,13.3333333 4,12.7363797 4,12 L4,10 C3.99566608,9.23195181 3.66037923,8.50306735 3.08,8 C3.66037923,7.49693265 3.99566608,6.76804819 4,6 L4,4 Z M14.6666667,7.33333333 C14.3130447,7.33333333 13.9739061,7.19285755 13.7238576,6.94280904 C13.4738091,6.69276054 13.3333333,6.35362199 13.3333333,6 L13.3333333,4 C13.3333333,2.52724067 12.139426,1.33333333 10.6666667,1.33333333 C10.2984768,1.33333333 10,1.63181016 10,2 C10,2.36818984 10.2984768,2.66666667 10.6666667,2.66666667 C11.4030463,2.66666667 12,3.26362034 12,4 L12,6 C12.0043339,6.76804819 12.3396208,7.49693265 12.92,8 C12.3396208,8.50306735 12.0043339,9.23195181 12,10 L12,12 C12,12.7363797 11.4030463,13.3333333 10.6666667,13.3333333 C10.2984768,13.3333333 10,13.6318102 10,14 C10,14.3681898 10.2984768,14.6666667 10.6666667,14.6666667 C12.139426,14.6666667 13.3333333,13.4727593 13.3333333,12 L13.3333333,10 C13.3333333,9.64637801 13.4738091,9.30723946 13.7238576,9.05719096 C13.9739061,8.80714245 14.3130447,8.66666667 14.6666667,8.66666667 C15.0348565,8.66666667 15.3333333,8.36818984 15.3333333,8 C15.3333333,7.63181016 15.0348565,7.33333333 14.6666667,7.33333333 L14.6666667,7.33333333 Z" id="形状" fill="#2A4EDB"></path>
        </g>
    </g>
</svg>