<?xml version="1.0" encoding="UTF-8"?>
<svg width="16px" height="16px" viewBox="0 0 16 16" version="1.1" xmlns="http://www.w3.org/2000/svg" xmlns:xlink="http://www.w3.org/1999/xlink">
    <title>编组 6</title>
    <g id="页面-1" stroke="none" stroke-width="1" fill="none" fill-rule="evenodd">
        <g id="编组-6">
            <rect id="矩形" x="0" y="0" width="16" height="16"></rect>
            <path d="M1.981,11.552 L1.981,6.719 L2.017,6.719 L5.338,11.552 L6.292,11.552 L6.292,5.126 L5.311,5.126 L5.311,9.905 L5.275,9.905 L1.99,5.126 L1,5.126 L1,11.552 L1.981,11.552 Z M8.779,11.678 C9.364,11.678 9.85,11.426 10.246,10.922 L10.246,11.552 L11.2,11.552 L11.2,6.899 L10.246,6.899 L10.246,9.743 C10.165,10.085 10.012,10.364 9.796,10.571 C9.58,10.769 9.355,10.877 9.103,10.877 C8.734,10.877 8.464,10.778 8.302,10.598 C8.131,10.418 8.05,10.13 8.05,9.734 L8.05,6.899 L7.096,6.899 L7.096,9.797 C7.096,11.048 7.654,11.678 8.779,11.678 Z M12.976,11.552 L12.976,5 L12.022,5 L12.022,11.552 L12.976,11.552 Z M14.851,11.552 L14.851,5 L13.897,5 L13.897,11.552 L14.851,11.552 Z" id="Null" fill="#2A4EDB"></path>
        </g>
    </g>
</svg>