<?xml version="1.0" encoding="UTF-8"?>
<svg width="16px" height="16px" viewBox="0 0 16 16" version="1.1" xmlns="http://www.w3.org/2000/svg" xmlns:xlink="http://www.w3.org/1999/xlink">
    <title>number</title>
    <defs>
        <filter color-interpolation-filters="auto" id="filter-1">
            <feColorMatrix in="SourceGraphic" type="matrix" values="0 0 0 0 0.164706 0 0 0 0 0.305882 0 0 0 0 0.858824 0 0 0 1.000000 0"></feColorMatrix>
        </filter>
    </defs>
    <g id="页面-1" stroke="none" stroke-width="1" fill="none" fill-rule="evenodd">
        <g filter="url(#filter-1)" id="number">
            <g>
                <rect id="矩形" fill="#000000" fill-rule="nonzero" opacity="0" x="0" y="0" width="16" height="16"></rect>
                <path d="M13.625,6.15625 C13.69375,6.15625 13.75,6.1 13.75,6.03125 L13.75,5.09375 C13.75,5.025 13.69375,4.96875 13.625,4.96875 L11.0625,4.96875 L11.0625,2.375 C11.0625,2.30625 11.00625,2.25 10.9375,2.25 L9.9375,2.25 C9.86875,2.25 9.8125,2.30625 9.8125,2.375 L9.8125,4.96875 L6.25,4.96875 L6.25,2.375 C6.25,2.30625 6.19375,2.25 6.125,2.25 L5.125,2.25 C5.05625,2.25 5,2.30625 5,2.375 L5,4.96875 L2.375,4.96875 C2.30625,4.96875 2.25,5.025 2.25,5.09375 L2.25,6.03125 C2.25,6.1 2.30625,6.15625 2.375,6.15625 L5,6.15625 L5,9.84375 L2.375,9.84375 C2.30625,9.84375 2.25,9.9 2.25,9.96875 L2.25,10.90625 C2.25,10.975 2.30625,11.03125 2.375,11.03125 L5,11.03125 L5,13.625 C5,13.69375 5.05625,13.75 5.125,13.75 L6.125,13.75 C6.19375,13.75 6.25,13.69375 6.25,13.625 L6.25,11.03125 L9.8125,11.03125 L9.8125,13.625 C9.8125,13.69375 9.86875,13.75 9.9375,13.75 L10.9375,13.75 C11.00625,13.75 11.0625,13.69375 11.0625,13.625 L11.0625,11.03125 L13.625,11.03125 C13.69375,11.03125 13.75,10.975 13.75,10.90625 L13.75,9.96875 C13.75,9.9 13.69375,9.84375 13.625,9.84375 L11.0625,9.84375 L11.0625,6.15625 L13.625,6.15625 Z M9.8125,9.84375 L6.25,9.84375 L6.25,6.15625 L9.8125,6.15625 L9.8125,9.84375 Z" id="形状" fill="#333333" fill-rule="nonzero"></path>
            </g>
        </g>
    </g>
</svg>