<svg width="11" height="12" viewBox="0 0 11 12" fill="none" xmlns="http://www.w3.org/2000/svg">
<path fill-rule="evenodd" clip-rule="evenodd" d="M4 2.6479V2.65574H3.93312C3.78335 2.65574 3.64285 2.68285 3.51101 2.73675C3.38096 2.7885 3.26645 2.85962 3.16814 2.94958C3.07316 3.0365 2.99601 3.14023 2.93679 3.26137C2.88125 3.38102 2.8535 3.50679 2.8535 3.63934C2.8535 3.7915 2.85647 3.94227 2.86241 4.09166C2.86844 4.2407 2.86845 4.38841 2.86243 4.53479C2.85935 4.67982 2.84562 4.8222 2.82119 4.9619C2.79635 5.10117 2.75435 5.23509 2.69529 5.36309C2.63568 5.49229 2.55443 5.61502 2.45212 5.73135C2.36759 5.82746 2.26404 5.91692 2.14212 6C2.26404 6.08308 2.36759 6.17254 2.45212 6.26865C2.55443 6.38497 2.63568 6.50771 2.69529 6.63691C2.75441 6.76505 2.79635 6.90016 2.82117 7.04208C2.84563 7.17922 2.85935 7.32164 2.86243 7.4693C2.86845 7.613 2.86844 7.76071 2.86241 7.91239C2.85647 8.05903 2.8535 8.20849 2.8535 8.36066C2.8535 8.49603 2.88128 8.62307 2.93667 8.74248C2.99578 8.86074 3.0729 8.96463 3.16815 9.05451C3.26645 9.14176 3.38047 9.21272 3.51072 9.26722C3.6426 9.31846 3.78321 9.34426 3.93312 9.34426H4V9.46667V10H3.93312C3.69807 10 3.47055 9.95893 3.25096 9.87685C3.03113 9.79468 2.83707 9.67684 2.66934 9.52335C2.50233 9.37052 2.37845 9.20334 2.29962 9.02156L2.29924 9.02069C2.2254 8.84332 2.17614 8.66019 2.15152 8.47144L2.15137 8.4703C2.13008 8.28101 2.12402 8.08772 2.13313 7.89048C2.14204 7.69747 2.1465 7.50448 2.1465 7.31148C2.1465 7.17922 2.1174 7.05365 2.059 6.93405L2.05846 6.93295C2.00244 6.81247 1.92571 6.70913 1.82809 6.62235L1.82665 6.62108C1.73183 6.53175 1.61843 6.46104 1.48556 6.4093L1.48451 6.40889C1.35251 6.35492 1.21349 6.32787 1.06688 6.32787H1V6.26667V5.73333V5.67213H1.06688C1.21373 5.67213 1.35295 5.64636 1.48504 5.595C1.61849 5.54037 1.73233 5.46937 1.82738 5.38239C1.92567 5.29244 2.00266 5.18864 2.0587 5.07067L2.059 5.07004C2.11731 4.95062 2.1465 4.82371 2.1465 4.68852C2.1465 4.49553 2.14204 4.30253 2.13313 4.10952C2.12402 3.91229 2.13008 3.72033 2.15139 3.53369L2.15149 3.53278C2.17611 3.34134 2.22536 3.1568 2.29925 2.97932L2.29961 2.97844C2.37844 2.79665 2.50233 2.62948 2.66934 2.47665C2.83707 2.32316 3.03113 2.20532 3.25096 2.12315C3.47055 2.04107 3.69807 2 3.93312 2H4V2.6479Z" fill="#70AD47"/>
<path fill-rule="evenodd" clip-rule="evenodd" d="M7 9.3521L7 9.34426L7.06688 9.34426C7.21665 9.34426 7.35715 9.31715 7.48899 9.26325C7.61904 9.2115 7.73355 9.14038 7.83186 9.05042C7.92684 8.9635 8.00399 8.85977 8.06321 8.73863C8.11875 8.61898 8.1465 8.49321 8.1465 8.36066C8.1465 8.2085 8.14353 8.05773 8.13759 7.90834C8.13156 7.7593 8.13155 7.61159 8.13757 7.46521C8.14065 7.32018 8.15438 7.1778 8.17881 7.0381C8.20365 6.89883 8.24565 6.76491 8.30471 6.63691C8.36432 6.50771 8.44557 6.38498 8.54788 6.26865C8.63241 6.17254 8.73596 6.08308 8.85788 6C8.73596 5.91692 8.63241 5.82746 8.54788 5.73135C8.44557 5.61502 8.36432 5.49229 8.30471 5.36309C8.24559 5.23495 8.20365 5.09984 8.17883 4.95792C8.15437 4.82078 8.14065 4.67836 8.13757 4.5307C8.13155 4.387 8.13156 4.23929 8.13759 4.08761C8.14353 3.94097 8.1465 3.79151 8.1465 3.63934C8.1465 3.50397 8.11872 3.37693 8.06333 3.25752C8.00422 3.13926 7.9271 3.03537 7.83185 2.94549C7.73355 2.85824 7.61953 2.78728 7.48928 2.73278C7.3574 2.68154 7.21679 2.65574 7.06688 2.65574L7 2.65574L7 2.53333L7 2L7.06688 2C7.30193 2 7.52945 2.04107 7.74904 2.12315C7.96887 2.20532 8.16293 2.32316 8.33067 2.47665C8.49767 2.62948 8.62155 2.79666 8.70038 2.97844L8.70076 2.97931C8.7746 3.15668 8.82386 3.33981 8.84848 3.52856L8.84863 3.5297C8.86993 3.71899 8.87598 3.91228 8.86687 4.10952C8.85796 4.30253 8.8535 4.49552 8.8535 4.68852C8.8535 4.82078 8.8826 4.94635 8.941 5.06595L8.94154 5.06705C8.99756 5.18753 9.07429 5.29087 9.17191 5.37765L9.17335 5.37892C9.26817 5.46825 9.38157 5.53896 9.51444 5.5907L9.51549 5.59111C9.64749 5.64508 9.78651 5.67213 9.93312 5.67213L10 5.67213L10 5.73333L10 6.26667L10 6.32787L9.93312 6.32787C9.78627 6.32787 9.64705 6.35364 9.51496 6.405C9.38151 6.45963 9.26767 6.53063 9.17262 6.61761C9.07433 6.70756 8.99734 6.81136 8.9413 6.92933L8.941 6.92996C8.88269 7.04938 8.8535 7.17629 8.8535 7.31148C8.8535 7.50447 8.85796 7.69747 8.86687 7.89048C8.87598 8.08771 8.86992 8.27967 8.84861 8.46631L8.84851 8.46722C8.82389 8.65866 8.77464 8.8432 8.70075 9.02068L8.70039 9.02156C8.62156 9.20334 8.49767 9.37052 8.33066 9.52335C8.16293 9.67684 7.96887 9.79468 7.74904 9.87685C7.52945 9.95893 7.30193 10 7.06688 10L7 10L7 9.3521Z" fill="#70AD47"/>
</svg>
