<?xml version="1.0" encoding="UTF-8"?>
<svg width="16px" height="16px" viewBox="0 0 16 16" version="1.1" xmlns="http://www.w3.org/2000/svg" xmlns:xlink="http://www.w3.org/1999/xlink">
    <title>问号</title>
    <defs>
        <filter color-interpolation-filters="auto" id="filter-1">
            <feColorMatrix in="SourceGraphic" type="matrix" values="0 0 0 0 0.415686 0 0 0 0 0.556863 0 0 0 0 0.905882 0 0 0 1.000000 0"></feColorMatrix>
        </filter>
    </defs>
    <g id="页面-1" stroke="none" stroke-width="1" fill="none" fill-rule="evenodd">
        <g filter="url(#filter-1)" id="问号">
            <g>
                <rect id="矩形" fill="#000000" fill-rule="nonzero" opacity="0" x="0" y="0" width="16" height="16"></rect>
                <path d="M7.03542187,12.0663281 L7.03542187,13.5118125 L8.48090625,13.5118125 L8.48090625,12.0663281 L7.03542187,12.0663281 Z M10.772625,7.066875 C10.9841562,6.68614063 11.0899844,6.27014063 11.0899844,5.81882813 C11.0899844,5.03854688 10.7890313,4.37326563 10.1874063,3.8233125 C9.58557812,3.27335938 8.779375,2.9983125 7.76870313,2.9983125 C6.814375,2.9983125 6.04696875,3.2545625 5.46648438,3.766875 C4.88585938,4.27934375 4.53684375,5.017375 4.41939063,5.98098438 L5.72385937,6.13609375 C5.83664063,5.41695313 6.07401563,4.88804688 6.43598438,4.54964063 C6.79795313,4.211125 7.24921875,4.04192188 7.78984375,4.04192188 C8.34925,4.04192188 8.8216875,4.22875 9.20720312,4.60245313 C9.592625,4.97620313 9.78548437,5.409875 9.78548437,5.90348438 C9.78548437,6.17615625 9.71951562,6.42770313 9.58795312,6.65792188 C9.4563125,6.88834375 9.17079687,7.19739063 8.73123437,7.58520313 C8.29167187,7.97301563 7.987375,8.26803125 7.81807812,8.47015625 C7.58775,8.7475625 7.42082812,9.0225625 7.3175,9.29510938 C7.1764375,9.65717188 7.10598437,10.0873125 7.10598437,10.5854844 C7.10598437,10.6701406 7.10826562,10.7970312 7.11301562,10.9663281 L8.33284375,10.9663281 C8.34220312,10.4585938 8.37745312,10.0918594 8.43865625,9.86632813 C8.49964062,9.64070313 8.59375,9.440875 8.72064062,9.26690625 C8.847625,9.09310938 9.11790625,8.8226875 9.53159375,8.45604688 C10.1473437,7.91075 10.5610625,7.44775 10.772625,7.066875 L10.772625,7.066875 Z" id="形状" fill="#272636" fill-rule="nonzero"></path>
            </g>
        </g>
    </g>
</svg>