<?xml version="1.0" encoding="UTF-8"?>
<svg width="16px" height="16px" viewBox="0 0 16 16" version="1.1" xmlns="http://www.w3.org/2000/svg" xmlns:xlink="http://www.w3.org/1999/xlink">
    <title>编组 3</title>
    <g id="页面-1" stroke="none" stroke-width="1" fill="none" fill-rule="evenodd">
        <g id="编组-3" fill="#2A4EDB">
            <path d="M3.709,11.678 C4.519,11.678 5.149,11.516 5.599,11.192 C6.049,10.859 6.274,10.409 6.274,9.833 C6.274,9.239 5.995,8.78 5.446,8.447 C5.194,8.294 4.627,8.087 3.763,7.817 C3.16,7.637 2.791,7.502 2.647,7.421 C2.323,7.25 2.17,7.025 2.17,6.737 C2.17,6.413 2.305,6.179 2.584,6.035 C2.809,5.909 3.133,5.846 3.556,5.846 C4.042,5.846 4.402,5.936 4.654,6.125 C4.906,6.305 5.068,6.611 5.158,7.025 L6.13,7.025 C6.067,6.323 5.815,5.81 5.365,5.477 C4.942,5.153 4.357,5 3.61,5 C2.926,5 2.359,5.153 1.909,5.459 C1.432,5.783 1.198,6.224 1.198,6.791 C1.198,7.349 1.441,7.781 1.936,8.078 C2.134,8.186 2.62,8.357 3.412,8.609 C4.123,8.825 4.546,8.969 4.69,9.041 C5.095,9.248 5.302,9.527 5.302,9.887 C5.302,10.175 5.158,10.4 4.87,10.562 C4.582,10.724 4.195,10.814 3.709,10.814 C3.169,10.814 2.773,10.715 2.512,10.517 C2.224,10.301 2.044,9.932 1.972,9.428 L1,9.428 C1.054,10.238 1.342,10.832 1.873,11.21 C2.314,11.516 2.926,11.678 3.709,11.678 Z M10.476,11.552 L10.476,10.76 L9.864,10.76 C9.747,10.76 9.666,10.724 9.612,10.67 C9.558,10.607 9.531,10.517 9.531,10.391 L9.531,7.691 L10.593,7.691 L10.593,6.899 L9.531,6.899 L9.531,5.396 L8.577,5.792 L8.577,6.899 L7.713,6.899 L7.713,7.691 L8.577,7.691 L8.577,10.391 C8.577,10.76 8.658,11.039 8.838,11.237 C9.018,11.444 9.315,11.552 9.711,11.552 L10.476,11.552 Z M13.337,11.552 L13.337,9.086 C13.337,8.681 13.454,8.348 13.697,8.096 C13.922,7.862 14.183,7.745 14.471,7.745 C14.687,7.745 14.912,7.772 15.146,7.844 L15.146,6.89 C14.984,6.809 14.777,6.773 14.543,6.773 C14.255,6.773 14.003,6.854 13.787,7.034 C13.607,7.16 13.454,7.349 13.337,7.601 L13.337,6.899 L12.383,6.899 L12.383,11.552 L13.337,11.552 Z" id="Str"></path>
        </g>
    </g>
</svg>